<svg xmlns="http://www.w3.org/2000/svg" xmlns:xlink="http://www.w3.org/1999/xlink" version="1.1" id="id_svgCanvas" x="0px" y="0px" width="24px" height="24px" viewBox="0 0 24 24" style="enable-background:new 0 0 24 24;" xml:space="preserve" preserveAspectRatio="none">

<rect class="st2" width="24" height="24" style="fill:none;;"></rect>
<path class="st1" d="M9,5h6v2H9V5z M9,17h6v2H9V17z M8.051,14.535l6.484-6.484l1.414,1.414l-6.484,6.484L8.051,14.535z" style="fill:#1565C0;;"></path>
<path id="58129040_shock_x5F_color_focus" class="stshockcolor" d="M22,8c0,1.104-0.896,2-2,2h-4c-1.104,0-2-0.896-2-2V4c0-1.104,0.896-2,2-2h4  c1.104,0,2,0.896,2,2V8z M20,4h-4v4h4V4z M10,20c0,1.104-0.896,2-2,2H4c-1.104,0-2-0.896-2-2v-4c0-1.104,0.896-2,2-2h4  c1.104,0,2,0.896,2,2V20z M8,16H4v4h4V16z" style="fill:#7E57C2;;" data-st="fill:#7E57C2;;"></path>
<path class="st4" d="M10,8c0,1.104-0.896,2-2,2H4c-1.104,0-2-0.896-2-2V4c0-1.104,0.896-2,2-2h4c1.104,0,2,0.896,2,2V8z M8,4H4v4h4  V4z M22,20c0,1.104-0.896,2-2,2h-4c-1.104,0-2-0.896-2-2v-4c0-1.104,0.896-2,2-2h4c1.104,0,2,0.896,2,2V20z M20,16h-4v4h4V16z" style="fill:#42A5F5;;"></path>
<path class="st3" d="M20,14h-4c-1.1,0-2,0.9-2,2v4c0,1.1,0.9,2,2,2h4c1.1,0,2-0.9,2-2v-4C22,14.9,21.1,14,20,14z M20,20h-4v-4h4V20z   M20,2h-4c-1.1,0-2,0.9-2,2v4c0,1.1,0.9,2,2,2h4c1.1,0,2-0.9,2-2V4C22,2.9,21.1,2,20,2z M20,8h-4V4h4V8z" style="opacity:0.4;fill:#FFFFFF;;"></path>
</svg>